HIERARCHY
ROOT Hips
{
	OFFSET -0.001795 -0.223333 0.028219
	CHANNELS 6 Xposition Yposition Zposition Zrotation Yrotation Xrotation 
	JOINT LeftUpLeg
	{
		OFFSET 0.069520 -0.091406 -0.006815
		CHANNELS 3 Zrotation Yrotation Xrotation
		JOINT LeftLeg
		{
			OFFSET 0.034277 -0.375199 -0.004496
			CHANNELS 3 Zrotation Yrotation Xrotation
			JOINT LeftFoot
			{
				OFFSET -0.013596 -0.397961 -0.043693
				CHANNELS 3 Zrotation Yrotation Xrotation
				JOINT LeftToe
				{
					OFFSET 0.026358 -0.055791 0.119288
					CHANNELS 3 Zrotation Yrotation Xrotation
					End Site
					{
						OFFSET 0.000000 0.000000 0.000000
					}
				}
			}
		}
	}
	JOINT RightUpLeg
	{
		OFFSET -0.067670 -0.090522 -0.004320
		CHANNELS 3 Zrotation Yrotation Xrotation
		JOINT RightLeg
		{
			OFFSET -0.038290 -0.382569 -0.008850
			CHANNELS 3 Zrotation Yrotation Xrotation
			JOINT RightFoot
			{
				OFFSET 0.015774 -0.398415 -0.042312
				CHANNELS 3 Zrotation Yrotation Xrotation
				JOINT RightToe
				{
					OFFSET -0.025372 -0.048144 0.123348
					CHANNELS 3 Zrotation Yrotation Xrotation
					End Site
					{
						OFFSET 0.000000 0.000000 0.000000
					}
				}
			}
		}
	}
	JOINT Spine
	{
		OFFSET -0.002533 0.108963 -0.026696
		CHANNELS 3 Zrotation Yrotation Xrotation
		JOINT Spine1
		{
			OFFSET 0.005487 0.135180 0.001092
			CHANNELS 3 Zrotation Yrotation Xrotation
			JOINT Spine2
			{
				OFFSET 0.001457 0.052922 0.025425
				CHANNELS 3 Zrotation Yrotation Xrotation
				JOINT Neck
				{
					OFFSET -0.002778 0.213870 -0.042857
					CHANNELS 3 Zrotation Yrotation Xrotation
					JOINT Head
					{
						OFFSET 0.005152 0.064970 0.051349
						CHANNELS 3 Zrotation Yrotation Xrotation
						End Site
						{
							OFFSET 0.000000 0.000000 0.000000
						}
					}
				}
				JOINT LeftShoulder
				{
					OFFSET 0.078845 0.121749 -0.034090
					CHANNELS 3 Zrotation Yrotation Xrotation
					JOINT LeftArm
					{
						OFFSET 0.090977 0.030469 -0.008868
						CHANNELS 3 Zrotation Yrotation Xrotation
						JOINT LeftForeArm
						{
							OFFSET 0.259612 -0.012772 -0.027456
							CHANNELS 3 Zrotation Yrotation Xrotation
							JOINT LeftHand
							{
								OFFSET 0.249234 0.008986 -0.001171
								CHANNELS 3 Zrotation Yrotation Xrotation
								End Site
								{
									OFFSET 0.000000 0.000000 0.000000
								}
							}
						}
					}
				}
				JOINT RightShoulder
				{
					OFFSET -0.081759 0.118833 -0.038615
					CHANNELS 3 Zrotation Yrotation Xrotation
					JOINT RightArm
					{
						OFFSET -0.096012 0.032551 -0.009143
						CHANNELS 3 Zrotation Yrotation Xrotation
						JOINT RightForeArm
						{
							OFFSET -0.253742 -0.013329 -0.021401
							CHANNELS 3 Zrotation Yrotation Xrotation
							JOINT RightHand
							{
								OFFSET -0.255298 0.007772 -0.005559
								CHANNELS 3 Zrotation Yrotation Xrotation
								End Site
								{
									OFFSET 0.000000 0.000000 0.000000
								}
							}
						}
					}
				}
			}
		}
	}
}
MOTION
Frames: 9
Frame Time: 0.050000
0.000000 0.944948 0.000000 -2.070284 4.380097 8.517579 6.027226 -0.354257 -3.060987 -0.511674 0.270973 -8.160329 7.282882 15.826254 6.341047 0.000000 0.000000 0.000000 -5.298226 0.638657 -8.876065 1.741042 -0.213508 -0.731358 -9.130918 -20.896299 20.311279 0.000000 0.000000 0.000000 -1.159334 -0.027878 2.024696 6.842678 -0.598509 -28.204966 -1.454425 -0.399280 26.047493 -1.121237 2.637460 -26.616627 0.000000 0.000000 0.000000 -28.202862 3.639322 -5.323683 -50.252008 -3.213209 -6.536361 -9.613581 -19.111750 2.463119 0.000000 0.000000 0.000000 21.026800 1.612023 0.504371 54.324380 5.887037 -5.157756 2.943914 22.242267 1.593121 0.000000 0.000000 0.000000 
0.000101 0.944861 0.001132 -2.314108 3.087345 9.162896 6.038243 -0.352252 -3.240627 -0.299561 0.282236 -8.522339 7.913150 16.919028 6.771408 0.000000 0.000000 0.000000 -5.452231 0.722084 -10.158432 2.264313 -0.249827 -0.020804 -8.499264 -20.132837 19.901663 0.000000 0.000000 0.000000 -0.631195 -0.010899 0.850021 6.850844 -0.628701 -27.952428 -1.439172 0.948365 26.361646 -2.152871 3.317503 -26.882652 0.000000 0.000000 0.000000 -27.963751 4.827843 -6.235045 -50.601700 -3.142488 -6.584827 -8.544463 -19.526887 2.331309 0.000000 0.000000 0.000000 20.756672 1.225467 0.410879 55.785896 5.119264 -5.611488 1.991646 23.674400 1.580486 0.000000 0.000000 0.000000 
0.000073 0.944251 0.002147 -1.733818 3.518430 8.988801 6.015846 -0.362187 -3.417552 -1.298074 0.292727 -7.858833 7.716095 16.542222 6.266117 0.000000 0.000000 0.000000 -6.060092 0.679064 -10.279591 2.288946 -0.239204 0.884423 -8.835958 -20.597657 19.562353 0.000000 0.000000 0.000000 -0.561211 -0.015139 0.879092 6.118852 -0.479218 -27.930665 -1.527259 0.293278 26.401689 -2.322687 3.362809 -27.320822 0.000000 0.000000 0.000000 -27.390499 4.494452 -5.767553 -51.239655 -3.186465 -6.698041 -7.727139 -19.011595 2.144637 0.000000 0.000000 0.000000 21.653027 1.584213 0.505267 54.653445 4.965799 -5.615895 1.296287 23.009421 1.373843 0.000000 0.000000 0.000000 
-0.000035 0.943851 0.003262 -1.965530 3.715449 9.172292 6.206431 -0.384522 -3.841368 -1.112996 0.276916 -7.416623 7.714570 16.514033 5.983116 0.000000 0.000000 0.000000 -6.231512 0.686853 -10.740842 3.076393 -0.329268 1.490107 -8.971868 -20.784198 19.494421 0.000000 0.000000 0.000000 -0.469679 -0.015062 0.765331 6.040739 -0.409749 -28.763760 -1.362368 -0.050937 26.757042 -2.703319 3.538631 -27.389749 0.000000 0.000000 0.000000 -27.871291 5.252264 -6.276552 -51.356241 -2.574382 -6.982561 -7.037367 -19.332007 2.082473 0.000000 0.000000 0.000000 21.441581 1.476402 0.394226 54.721192 4.590178 -5.794188 1.674840 22.806749 1.420429 0.000000 0.000000 0.000000 
-0.000260 0.943967 0.004267 -1.800366 4.584388 8.998778 6.604494 -0.406387 -4.048004 -1.929865 0.290974 -6.886398 7.334098 15.823606 5.600382 0.000000 0.000000 0.000000 -6.627679 0.637637 -10.685870 3.629766 -0.405846 2.137186 -9.451463 -21.397463 19.658382 0.000000 0.000000 0.000000 -0.569574 -0.019309 0.984506 6.211309 -0.480242 -28.131450 -1.497964 -0.122810 25.768116 -2.603368 3.544691 -26.981650 0.000000 0.000000 0.000000 -27.503906 5.198934 -6.399458 -51.521794 -2.269955 -6.981450 -7.227291 -19.764899 2.134477 0.000000 0.000000 0.000000 21.994465 0.874683 0.137199 54.001640 4.207788 -5.821586 1.928411 22.259947 1.424633 0.000000 0.000000 0.000000 
-0.000466 0.944209 0.004888 -1.830124 5.131890 9.075178 6.923365 -0.438728 -4.673822 -2.286322 0.291469 -6.053230 7.152114 15.473192 5.285676 0.000000 0.000000 0.000000 -6.669499 0.624719 -10.728206 3.873533 -0.444935 2.289338 -9.740213 -21.752798 19.909010 0.000000 0.000000 0.000000 -0.786084 -0.008241 0.929588 6.087035 -0.436084 -28.411883 -1.081773 -0.510994 26.072482 -2.680227 3.575178 -26.775149 0.000000 0.000000 0.000000 -27.706840 5.366465 -6.537053 -51.423534 -2.257780 -7.000667 -7.132506 -20.411301 2.198179 0.000000 0.000000 0.000000 21.630902 0.954398 0.202022 54.217318 3.954113 -5.971906 1.365789 21.676754 1.284010 0.000000 0.000000 0.000000 
-0.000487 0.944378 0.005012 -1.779942 5.449968 9.159647 7.300518 -0.467031 -5.335506 -2.970445 0.313506 -5.143657 7.070123 15.295871 4.996954 0.000000 0.000000 0.000000 -6.875786 0.606395 -10.792185 4.189648 -0.492646 2.353665 -9.909165 -21.957441 20.072861 0.000000 0.000000 0.000000 -0.681704 -0.021730 1.187831 5.859920 -0.396580 -28.280109 -1.073212 -0.450840 25.809008 -2.307359 3.407376 -26.896822 0.000000 0.000000 0.000000 -27.226619 5.498113 -6.629879 -51.648360 -2.271593 -6.982370 -7.032016 -21.158699 2.253115 0.000000 0.000000 0.000000 21.714860 0.762720 0.156574 54.190958 3.808574 -6.014128 1.505989 21.268429 1.282097 0.000000 0.000000 0.000000 
-0.000083 0.944650 0.004787 -1.930224 5.588073 8.974380 7.755304 -0.486170 -6.055954 -3.497055 0.337178 -3.610365 7.116179 15.310324 4.536523 0.000000 0.000000 0.000000 -6.600986 0.620145 -10.795056 3.813614 -0.441790 2.863274 -9.598784 -21.475314 19.875774 0.000000 0.000000 0.000000 -0.647309 -0.039295 1.625251 5.773240 -0.367782 -28.474883 -0.812296 -0.275029 26.058724 -1.909647 3.208195 -26.269378 0.000000 0.000000 0.000000 -27.114422 5.305792 -6.564153 -51.476530 -2.483035 -6.886010 -7.579620 -21.926415 2.437216 0.000000 0.000000 0.000000 21.472171 0.431638 0.056850 54.374269 3.603805 -6.158860 1.823940 21.169816 1.340237 0.000000 0.000000 0.000000 
0.000976 0.945159 0.004454 -2.105482 5.635040 9.059440 8.011712 -0.508625 -6.941982 -3.713870 0.350192 -2.289639 7.192249 15.411126 4.260950 0.000000 0.000000 0.000000 -6.603746 0.622280 -10.833937 3.837126 -0.445617 2.958772 -9.085276 -20.687519 19.629243 0.000000 0.000000 0.000000 -0.511020 -0.058996 1.970890 5.689767 -0.345304 -28.528079 -0.721465 -0.182554 26.018105 -1.511326 3.006398 -26.462235 0.000000 0.000000 0.000000 -26.647284 5.098990 -6.370972 -51.785363 -2.935451 -6.743186 -7.750443 -22.098813 2.486094 0.000000 0.000000 0.000000 21.579989 0.265445 -0.013184 54.313199 3.236890 -6.313854 2.161079 20.948642 1.378701 0.000000 0.000000 0.000000 
